<svg width="40" height="41" viewBox="0 0 40 41" fill="none" xmlns="http://www.w3.org/2000/svg">
<path id="Vector" d="M37.8 0.399902H2.2C1.61652 0.399902 1.05695 0.631688 0.644365 1.04427C0.231785 1.45685 0 2.01643 0 2.5999V38.1999C0 38.7834 0.231785 39.343 0.644365 39.7555C1.05695 40.1681 1.61652 40.3999 2.2 40.3999H21.36V24.8999H16.16V18.8999H21.36V14.3999C21.2523 13.3434 21.377 12.2762 21.7254 11.273C22.0739 10.2698 22.6375 9.35499 23.3769 8.59272C24.1163 7.83046 25.0135 7.23918 26.0057 6.86038C26.9978 6.48157 28.0607 6.32441 29.12 6.3999C30.6767 6.39032 32.2326 6.47046 33.78 6.6399V12.0399H30.6C28.08 12.0399 27.6 13.2399 27.6 14.9799V18.8399H33.6L32.82 24.8399H27.6V40.3999H37.8C38.0889 40.3999 38.375 40.343 38.6419 40.2324C38.9088 40.1219 39.1513 39.9598 39.3556 39.7555C39.5599 39.5513 39.722 39.3087 39.8325 39.0418C39.9431 38.7749 40 38.4888 40 38.1999V2.5999C40 2.31099 39.9431 2.02492 39.8325 1.758C39.722 1.49108 39.5599 1.24856 39.3556 1.04427C39.1513 0.839979 38.9088 0.677928 38.6419 0.567368C38.375 0.456807 38.0889 0.399902 37.8 0.399902Z" fill="#A50000"/>
</svg>
