<svg width="30" height="31" viewBox="0 0 30 31" fill="none" xmlns="http://www.w3.org/2000/svg">
<path d="M16.5429 0.401748C17.6375 0.397548 18.7321 0.408549 19.8264 0.434748L20.1174 0.445248C20.4534 0.457248 20.7849 0.472248 21.1854 0.490248C22.7814 0.565248 23.8704 0.817248 24.8259 1.18775C25.8159 1.56875 26.6499 2.08475 27.4839 2.91875C28.2464 3.66816 28.8366 4.57467 29.2134 5.57525C29.5839 6.53075 29.8359 7.62125 29.9109 9.21725C29.9289 9.61625 29.9439 9.94925 29.9559 10.2852L29.9649 10.5762C29.9915 11.67 30.003 12.7641 29.9994 13.8583L30.0009 14.9773V16.9422C30.0046 18.0369 29.9931 19.1315 29.9664 20.2257L29.9574 20.5168C29.9454 20.8528 29.9304 21.1842 29.9124 21.5847C29.8374 23.1807 29.5824 24.2697 29.2134 25.2253C28.8378 26.2269 28.2475 27.1341 27.4839 27.8833C26.7338 28.6457 25.8268 29.2359 24.8259 29.6128C23.8704 29.9833 22.7814 30.2353 21.1854 30.3103C20.7849 30.3283 20.4534 30.3433 20.1174 30.3553L19.8264 30.3643C18.7321 30.3909 17.6375 30.4024 16.5429 30.3988L15.4239 30.4003H13.4604C12.3658 30.4039 11.2712 30.3924 10.1769 30.3658L9.88587 30.3568C9.52978 30.3438 9.17377 30.3288 8.81786 30.3118C7.22187 30.2368 6.13286 29.9818 5.17586 29.6128C4.17489 29.2368 3.26822 28.6465 2.51937 27.8833C1.75593 27.1337 1.1652 26.2266 0.788366 25.2253C0.417866 24.2697 0.165865 23.1807 0.0908654 21.5847C0.0741598 21.2288 0.0591597 20.8728 0.0458655 20.5168L0.0383656 20.2257C0.010711 19.1315 -0.00179032 18.0369 0.000865501 16.9422V13.8583C-0.00332095 12.7642 0.00768022 11.67 0.0338656 10.5762L0.0443656 10.2852C0.0563656 9.94925 0.0713655 9.61625 0.0893655 9.21725C0.164366 7.61975 0.416365 6.53225 0.786865 5.57525C1.16392 4.57418 1.75581 3.66792 2.52087 2.92025C3.26921 2.15638 4.17531 1.56511 5.17586 1.18775C6.13286 0.817248 7.22037 0.565248 8.81786 0.490248L9.88587 0.445248L10.1769 0.437748C11.2706 0.410107 12.3647 0.397606 13.4589 0.400248L16.5429 0.401748ZM15.0009 7.90175C14.0071 7.88769 13.0205 8.07128 12.0983 8.44185C11.1762 8.81242 10.3368 9.36257 9.62913 10.0603C8.92143 10.7581 8.35947 11.5896 7.9759 12.5064C7.59233 13.4232 7.3948 14.4072 7.3948 15.401C7.3948 16.3948 7.59233 17.3788 7.9759 18.2956C8.35947 19.2124 8.92143 20.0439 9.62913 20.7417C10.3368 21.4394 11.1762 21.9896 12.0983 22.3601C13.0205 22.7307 14.0071 22.9143 15.0009 22.9002C16.99 22.9002 18.8976 22.1101 20.3042 20.7036C21.7107 19.297 22.5009 17.3894 22.5009 15.4003C22.5009 13.4111 21.7107 11.5035 20.3042 10.0969C18.8976 8.69042 16.99 7.90175 15.0009 7.90175ZM15.0009 10.9017C15.5986 10.8907 16.1926 10.9989 16.7481 11.2201C17.3035 11.4412 17.8094 11.7708 18.236 12.1896C18.6627 12.6084 19.0016 13.108 19.233 13.6593C19.4644 14.2105 19.5837 14.8024 19.5838 15.4002C19.5839 15.9981 19.4648 16.59 19.2336 17.1413C19.0024 17.6927 18.6636 18.1924 18.2371 18.6114C17.8106 19.0303 17.3048 19.3601 16.7495 19.5814C16.1941 19.8027 15.6001 19.9111 15.0024 19.9002C13.8089 19.9002 12.6643 19.4261 11.8204 18.5822C10.9765 17.7383 10.5024 16.5937 10.5024 15.4003C10.5024 14.2068 10.9765 13.0622 11.8204 12.2183C12.6643 11.3744 13.8089 10.9002 15.0024 10.9002L15.0009 10.9017ZM22.8759 5.65175C22.392 5.67112 21.9343 5.87697 21.5988 6.22621C21.2632 6.57544 21.0758 7.04095 21.0758 7.52525C21.0758 8.00955 21.2632 8.47506 21.5988 8.82429C21.9343 9.17352 22.392 9.37938 22.8759 9.39875C23.3731 9.39875 23.8501 9.20121 24.2017 8.84957C24.5533 8.49794 24.7509 8.02103 24.7509 7.52375C24.7509 7.02647 24.5533 6.54955 24.2017 6.19792C23.8501 5.84629 23.3731 5.64875 22.8759 5.64875V5.65175Z" fill="#A50000"/>
</svg>
