<svg width="27" height="28" viewBox="0 0 27 28" fill="none" xmlns="http://www.w3.org/2000/svg">
<path id="Vector" d="M24 0.399902C24.7956 0.399902 25.5587 0.715973 26.1213 1.27858C26.6839 1.84119 27 2.60425 27 3.3999V24.3999C27 25.1956 26.6839 25.9586 26.1213 26.5212C25.5587 27.0838 24.7956 27.3999 24 27.3999H3C2.20435 27.3999 1.44129 27.0838 0.87868 26.5212C0.31607 25.9586 0 25.1956 0 24.3999V3.3999C0 2.60425 0.31607 1.84119 0.87868 1.27858C1.44129 0.715973 2.20435 0.399902 3 0.399902H24ZM23.25 23.6499V15.6999C23.25 14.403 22.7348 13.1592 21.8178 12.2421C20.9007 11.3251 19.6569 10.8099 18.36 10.8099C17.085 10.8099 15.6 11.5899 14.88 12.7599V11.0949H10.695V23.6499H14.88V16.2549C14.88 15.0999 15.81 14.1549 16.965 14.1549C17.522 14.1549 18.0561 14.3762 18.4499 14.77C18.8438 15.1638 19.065 15.6979 19.065 16.2549V23.6499H23.25ZM5.82 8.7399C6.48835 8.7399 7.12932 8.4744 7.60191 8.00181C8.0745 7.52922 8.34 6.88825 8.34 6.2199C8.34 4.8249 7.215 3.6849 5.82 3.6849C5.14768 3.6849 4.50289 3.95198 4.02748 4.42739C3.55208 4.90279 3.285 5.54758 3.285 6.2199C3.285 7.6149 4.425 8.7399 5.82 8.7399ZM7.905 23.6499V11.0949H3.75V23.6499H7.905Z" fill="#A50000"/>
</svg>
