<svg width="48" height="48" viewBox="0 0 48 48" fill="none" xmlns="http://www.w3.org/2000/svg">
<g id="iconoir:send-mail">
<g id="Group">
<path id="Vector" d="M18 18L27 24L36 18M6 27H10M2 21H10" stroke="#A50000" stroke-width="1.5" stroke-linecap="round" stroke-linejoin="round"/>
<path id="Vector_2" d="M10 15V14C10 12.9391 10.4214 11.9217 11.1716 11.1716C11.9217 10.4214 12.9391 10 14 10H40C41.0609 10 42.0783 10.4214 42.8284 11.1716C43.5786 11.9217 44 12.9391 44 14V34C44 35.0609 43.5786 36.0783 42.8284 36.8284C42.0783 37.5786 41.0609 38 40 38H14C12.9391 38 11.9217 37.5786 11.1716 36.8284C10.4214 36.0783 10 35.0609 10 34V33" stroke="#A50000" stroke-width="1.5" stroke-linecap="round"/>
</g>
</g>
</svg>
