<svg width="24" height="24" viewBox="0 0 24 24" fill="none" xmlns="http://www.w3.org/2000/svg">
<rect width="24" height="24" rx="4" fill="#A50000"/>
<path d="M22 5.55465C21.2512 5.88589 20.4572 6.10349 19.6442 6.20026C20.5008 5.68725 21.1418 4.88034 21.4476 3.92985C20.6431 4.40866 19.761 4.74421 18.8426 4.92573C18.2251 4.26499 17.4066 3.82679 16.5143 3.67925C15.622 3.5317 14.706 3.68308 13.9086 4.10985C13.1113 4.53662 12.4772 5.21486 12.1051 6.03914C11.733 6.86343 11.6436 7.78756 11.8509 8.66788C10.2191 8.58624 8.62281 8.16231 7.16556 7.42363C5.70831 6.68495 4.42272 5.64803 3.39227 4.3802C3.02756 5.00663 2.83591 5.71873 2.83693 6.44359C2.83693 7.86627 3.56201 9.12314 4.66189 9.85901C4.01041 9.83846 3.37328 9.66253 2.80357 9.34586V9.3959C2.80354 10.3436 3.13131 11.2621 3.73129 11.9957C4.33127 12.7292 5.16652 13.2327 6.09537 13.4206C5.49062 13.5847 4.85645 13.6088 4.24097 13.4913C4.50287 14.307 5.01336 15.0204 5.70094 15.5315C6.38852 16.0426 7.21876 16.3258 8.07535 16.3415C7.22405 17.0102 6.2493 17.5044 5.20684 17.796C4.16437 18.0876 3.07465 18.1708 2 18.0409C3.87571 19.2471 6.05917 19.8875 8.28925 19.8855C15.8383 19.8855 19.9651 13.6326 19.9651 8.20968C19.9651 8.03307 19.9611 7.8545 19.9533 7.67887C20.7563 7.09837 21.4494 6.3784 22 5.55465Z" fill="#F5F5F5"/>
</svg>
